<svg xmlns="http://www.w3.org/2000/svg" xmlns:xlink="http://www.w3.org/1999/xlink" width="80" zoomAndPan="magnify" viewBox="0 0 60 60" height="80" preserveAspectRatio="xMidYMid meet" version="1.0"><rect x="-6" width="72" fill="#ffffff" y="-6" height="72" fill-opacity="1"/><rect x="-6" width="72" fill="#ffffff" y="-6" height="72" fill-opacity="1"/><path fill="#04dbbd" d="M 34.265625 39.125 C 34.613281 39.496094 34.84375 39.929688 34.824219 40.433594 C 34.800781 40.964844 34.484375 41.4375 34.171875 41.867188 C 30.386719 47.113281 25.613281 51.640625 20.175781 55.15625 C 19.503906 54.992188 18.84375 54.785156 18.207031 54.515625 C 23.664062 49.496094 29.019531 44.363281 34.265625 39.125 Z M 34.265625 39.125 " fill-opacity="1" fill-rule="nonzero"/><path fill="#ffc73b" d="M 33.085938 38.199219 C 33.496094 38.460938 33.933594 38.765625 34.265625 39.125 C 29.019531 44.363281 23.664062 49.496094 18.207031 54.515625 C 17.824219 54.355469 17.445312 54.171875 17.085938 53.960938 C 21.722656 48.253906 26.367188 42.546875 31.199219 37.003906 C 31.828125 37.402344 32.457031 37.800781 33.085938 38.199219 Z M 33.085938 38.199219 " fill-opacity="1" fill-rule="nonzero"/><path fill="#04dbbd" d="M 26.769531 34.203125 C 28.246094 35.140625 29.722656 36.070312 31.199219 37.003906 C 26.367188 42.546875 21.722656 48.253906 17.085938 53.960938 C 17.046875 53.941406 17.011719 53.921875 16.976562 53.902344 C 16.558594 53.652344 16.15625 53.371094 15.78125 53.054688 C 19.644531 46.886719 22.617188 40.152344 26.769531 34.203125 Z M 26.769531 34.203125 " fill-opacity="1" fill-rule="nonzero"/><path fill="#ffc73b" d="M 24.011719 32.460938 C 24.929688 33.042969 25.851562 33.625 26.769531 34.203125 C 22.617188 40.152344 19.644531 46.886719 15.78125 53.054688 C 15.375 52.710938 15.003906 52.332031 14.679688 51.917969 C 15.199219 50.703125 15.78125 49.507812 16.304688 48.292969 C 17.359375 45.84375 18.1875 43.300781 19.144531 40.8125 C 20.308594 37.789062 21.667969 34.839844 23.210938 31.992188 C 23.515625 32.152344 23.789062 32.320312 24.011719 32.460938 Z M 24.011719 32.460938 " fill-opacity="1" fill-rule="nonzero"/><path fill="#04dbbd" d="M 23.210938 31.992188 C 21.667969 34.839844 20.308594 37.789062 19.144531 40.8125 C 18.1875 43.300781 17.359375 45.84375 16.304688 48.292969 C 15.78125 49.507812 15.199219 50.703125 14.679688 51.917969 C 14.46875 51.648438 14.273438 51.367188 14.105469 51.070312 C 14.253906 50.433594 14.414062 49.804688 14.578125 49.171875 C 15.015625 47.484375 15.453125 45.789062 15.910156 44.105469 C 16.734375 41.066406 17.628906 38.046875 18.699219 35.085938 C 19.050781 34.117188 19.492188 31.851562 20.589844 31.433594 C 21.355469 31.144531 22.386719 31.546875 23.210938 31.992188 Z M 23.210938 31.992188 " fill-opacity="1" fill-rule="nonzero"/><path fill="#50128d" d="M 18.207031 54.515625 C 18.84375 54.785156 19.503906 54.992188 20.175781 55.15625 C 20.089844 55.214844 20.003906 55.269531 19.917969 55.324219 C 18.585938 56.171875 17.195312 56.972656 15.664062 57.347656 C 15.027344 57.503906 14.261719 57.546875 13.8125 57.066406 C 13.449219 56.679688 13.433594 56.09375 13.457031 55.566406 C 13.503906 54.574219 13.613281 53.582031 13.785156 52.605469 C 13.875 52.089844 13.984375 51.578125 14.105469 51.070312 C 14.273438 51.367188 14.46875 51.648438 14.679688 51.917969 C 15.003906 52.332031 15.375 52.710938 15.78125 53.054688 C 16.15625 53.371094 16.558594 53.652344 16.976562 53.902344 C 17.011719 53.921875 17.046875 53.941406 17.085938 53.960938 C 17.445312 54.171875 17.824219 54.355469 18.207031 54.515625 Z M 18.207031 54.515625 " fill-opacity="1" fill-rule="nonzero"/><path fill="#50128d" d="M 20.988281 34.523438 C 23.335938 38.230469 27.460938 40.554688 31.738281 41.523438 C 32.378906 41.667969 33.050781 41.785156 33.679688 41.605469 C 34.308594 41.421875 34.867188 40.851562 34.824219 40.199219 C 34.796875 39.78125 34.539062 39.414062 34.277344 39.089844 C 33.832031 38.53125 33.34375 38.003906 32.824219 37.515625 C 32.296875 37.023438 31.738281 36.570312 31.179688 36.117188 C 30.476562 35.542969 23.757812 31.003906 21.265625 31.191406 C 19.597656 31.457031 20.429688 33.640625 20.988281 34.523438 Z M 20.988281 34.523438 " fill-opacity="1" fill-rule="nonzero"/></svg>