<svg xmlns="http://www.w3.org/2000/svg" xmlns:xlink="http://www.w3.org/1999/xlink" width="40" zoomAndPan="magnify" viewBox="0 0 30 30.000001" height="40" preserveAspectRatio="xMidYMid meet" version="1.0"><defs><clipPath id="e9c1a5c021"><path d="M 4 2.902344 L 26 2.902344 L 26 25 L 4 25 Z M 4 2.902344 " clip-rule="nonzero"/></clipPath></defs><g clip-path="url(#e9c1a5c021)"><path fill="#01243e" d="M 25.160156 4.597656 L 25.160156 10.816406 C 25.160156 20.300781 17.136719 23.449219 15.527344 23.984375 C 15.1875 24.101562 14.8125 24.101562 14.472656 23.984375 C 12.863281 23.449219 4.839844 20.300781 4.839844 10.816406 L 4.839844 4.597656 C 4.839844 4.148438 5.015625 3.71875 5.335938 3.398438 C 5.652344 3.082031 6.082031 2.902344 6.53125 2.902344 L 23.46875 2.902344 C 23.917969 2.902344 24.347656 3.082031 24.664062 3.398438 C 24.984375 3.71875 25.160156 4.148438 25.160156 4.597656 Z M 25.160156 4.597656 " fill-opacity="1" fill-rule="nonzero"/></g><path fill="#ffffff" d="M 14.6875 16.164062 C 14.878906 16.050781 15.121094 16.050781 15.3125 16.164062 L 18.257812 17.933594 C 18.71875 18.207031 19.28125 17.796875 19.160156 17.277344 L 18.378906 13.953125 C 18.328125 13.734375 18.402344 13.503906 18.574219 13.359375 L 21.167969 11.125 C 21.574219 10.773438 21.355469 10.109375 20.824219 10.0625 L 17.402344 9.773438 C 17.179688 9.757812 16.984375 9.617188 16.898438 9.410156 L 15.554688 6.265625 C 15.347656 5.773438 14.652344 5.773438 14.445312 6.265625 L 13.101562 9.410156 C 13.015625 9.617188 12.820312 9.757812 12.597656 9.773438 L 9.175781 10.0625 C 8.644531 10.109375 8.425781 10.773438 8.832031 11.125 L 11.425781 13.359375 C 11.597656 13.503906 11.671875 13.734375 11.621094 13.953125 L 10.839844 17.277344 C 10.71875 17.796875 11.28125 18.207031 11.742188 17.933594 Z M 14.6875 16.164062 " fill-opacity="1" fill-rule="nonzero"/></svg>